<svg id="deck_shadow_Image" data-name="deck shadow Image" xmlns="http://www.w3.org/2000/svg" xmlns:xlink="http://www.w3.org/1999/xlink" viewBox="0 0 1076 1080">
  <image id="deck_shadow_Image-2" data-name="deck shadow Image" width="1076" height="1079" transform="translate(-1.5 1077.5) rotate(-90)" xlink:href="images/skateboard1.png"/>
  <path class="interactive" d="M440.5,958.5s2.57,34.78,87,36,103.76-16.76,111-48,16.17-98.16,19-147,14.47-242.29,16-283,4.23-144.93,2-169-23-152.1-53-200-51.92-65.29-85-67-68.78,36.91-86,71-46.5,135.09-49,194-2.62,148.05-1,190,12.58,234.27,14,260S425.48,936.36,440.5,958.5Z" fill-rule="evenodd"/>
  <image id="trucks_shadow_Image" data-name="trucks shadow Image" width="660" height="121" transform="translate(478.5 840.5) rotate(-90)" xlink:href="images/skateboard2.png"/>
  <image id="wheel_shadow_Image" data-name="wheel shadow Image" width="690" height="265" transform="translate(406.5 858.5) rotate(-90)" xlink:href="images/skateboard3.png"/>
  <path class="interactive" d="M482.5,827.5l24,1s-1.29,4.28,1,7,8.51,4.88,23,4,46,0,46,0l4-3,1-8,18-1v-28s-18.77-6.84-19-9-1-48-1-48l-3-4-66-1-5,3,1,47s-12.66,10.88-24,11C482.35,798.5,482.5,827.5,482.5,827.5Z" fill-rule="evenodd"/>
  <path class="interactive" d="M479.5,227.5s9.41,0,14,3,11,8,11,8v43l4,3,65,1,5-3v-46s5.23-4.78,8-6,12-3,12-3v-28l-19-1s-.33-12-1-13a7.27,7.27,0,0,0-5-4c-1.6-.28-62.95-1.64-65,0-2.48,2-3.66,3-4,6a93,93,0,0,0,0,10l-26,1Z" fill-rule="evenodd"/>
  <image id="trucks_Image" data-name="trucks Image" width="660" height="121" transform="translate(478.5 840.5) rotate(-90)" xlink:href="images/skateboard4.png"/>
  <path class="interactive" d="M479.5,254.5h-68s-4-2.65-4-7-1.9-62.89,0-70,4-8.23,6-8,60.56-.39,63,0,3.82.75,5,6,1,23,1,23l-4,1,1,27h3s.71,23.42,0,25A9.09,9.09,0,0,1,479.5,254.5Z" fill-rule="evenodd"/>
  <path class="interactive" d="M603.5,255.5s-5.44-.6-5-3-.08-73.66,1-78c.58-2.33,1.3-4.63,5-5s61.34-.67,63,0,2.6,1.5,3,5-.56,73.44-2,79c-.76,2.93-6.74,1.91-8,2S603.5,255.5,603.5,255.5Z" fill-rule="evenodd"/>
  <path class="interactive" d="M416.5,855.5s-5.7-.16-6-5-1.44-74.44,0-76,2.9-4,5-4,61.8-1,64,1,3.53.13,4,5,2,23,2,23h-3s-1.32,25.14,0,27,1,1,1,1-.55,23.37-1,25-2.1,2.53-5,3S416.5,855.5,416.5,855.5Z" fill-rule="evenodd"/>
  <path class="interactive" d="M604.5,856.5s-4-.13-4-5-1.76-71.5,0-76,1.29-3.53,3-4,61.22-.62,63,0,2.68,1.28,3,4,3.15,73.62,1,78-3.16,3.66-5,4S604.5,856.5,604.5,856.5Z" fill-rule="evenodd"/>
</svg>
